<svg preserveAspectRatio="none" width="100%" height="100%" overflow="visible" style="display: block;" viewBox="0 0 129 188" fill="none" xmlns="http://www.w3.org/2000/svg">
<g id="Vector">
<path d="M100.502 121.858V140.729H97.4863C88.5247 140.729 79.5631 141.016 70.6302 140.672C55.2346 140.068 41.7922 151.443 41.1603 167.7C41.1603 167.959 41.0454 168.217 40.9305 168.648C40.1837 168.705 39.4369 168.792 38.7188 168.792C29.0965 168.792 19.4743 168.82 9.85204 168.792C4.04996 168.792 0.430847 165.316 0.0287231 159.514C0 159.026 0 158.566 0 158.078C0 121.485 0 84.8625 0.0574463 48.2692C0.0574463 46.431 0.574463 44.5352 1.14893 42.7544C2.3553 38.9917 5.31378 37.4981 9.01907 37.297C11.4031 37.1534 13.7871 37.3544 16.1711 37.2108C16.8605 37.1821 18.0956 36.5789 18.1243 36.1481C18.3254 33.8789 18.3541 31.5811 18.1243 29.312C18.0669 28.8524 16.7169 28.2205 15.9126 28.163C9.13396 27.7035 9.13396 27.7322 9.13396 20.9823C9.13396 17.277 9.07651 13.543 9.13396 9.83768C9.24885 3.86326 12.9541 0.0718079 18.8137 0.0430847C39.7816 -0.0143616 60.7207 -0.0143616 81.6886 0.0430847C87.7492 0.0430847 91.397 3.86326 91.4545 9.92385C91.4832 14.7781 91.3683 19.661 91.4832 24.5152C91.5407 27.0716 90.5641 28.1056 87.979 28.1056C81.7173 28.0769 82.4354 27.0716 82.2631 33.9651C82.2056 36.4066 82.8375 37.5268 85.4513 37.2683C87.2322 37.0959 89.0705 37.2108 90.88 37.2396C96.4523 37.3544 100.272 40.5714 100.502 46.0863C100.79 52.3479 100.56 58.6383 100.56 65.2733H97.0555C73.043 65.2733 49.0591 65.2733 25.0466 65.2733C20.4222 65.2733 18.2966 67.3988 18.2966 72.052C18.2966 86.4423 18.2966 100.833 18.2966 115.223C18.2966 120.422 19.7328 121.887 24.8742 121.887C48.8868 121.887 72.8706 121.887 96.8832 121.887H100.531L100.502 121.858Z" fill="var(--fill-0, #C0D72F)"/>
<path d="M60.917 27.9182V76.6455H50.6148V37.6969H50.3293L39.1705 44.692V35.5556L51.2334 27.9182H60.917Z" fill="white"/>
<path d="M100.33 112.149C78.5577 112.149 57.044 112.149 35.5304 112.149C26.5401 112.149 27.4305 113.154 27.4305 104.077C27.4305 95.4892 27.4305 86.9297 27.4305 78.3415C27.4305 76.1298 28.1773 74.9522 30.5613 74.9522C53.5111 74.9809 76.4609 74.9522 99.4107 74.9809C99.6692 74.9809 99.9564 75.0671 100.359 75.1532V112.149H100.33Z" fill="var(--fill-0, #C0D72F)"/>
<path d="M89.0996 149.891C95.9644 149.891 102.829 149.719 109.665 149.948C117.334 150.178 123.28 153.682 126.325 160.863C129.341 167.958 128.623 174.909 123.338 180.854C119.517 185.134 114.548 187.518 108.832 187.576C95.7059 187.748 82.5507 187.92 69.3955 187.547C59.0552 187.231 50.467 179.591 50.3521 168.762C50.2659 158.048 58.251 150.063 69.1083 149.92C75.7721 149.833 82.4358 149.92 89.0996 149.92V149.891ZM88.9273 177.896V159.082C81.8614 159.082 74.9104 158.967 67.9881 159.111C62.3009 159.255 59.5148 164.827 59.5148 169.164C59.5148 173.817 63.536 177.781 68.3902 177.867C75.1402 177.982 81.9188 177.896 88.9273 177.896Z" fill="var(--fill-0, #C0D72F)"/>
</g>
</svg>
