<svg preserveAspectRatio="none" width="100%" height="100%" overflow="visible" style="display: block;" viewBox="0 0 83 132" fill="none" xmlns="http://www.w3.org/2000/svg">
<g id="Med2">
<path d="M82.573 52.6407L67.6419 33.2914C67.5273 33.1443 67.3677 33.056 67.2216 32.9474C67.2553 32.8025 67.3115 32.6622 67.3115 32.506V25.879C67.3115 25.7568 67.2643 25.6526 67.2441 25.5395H67.7183C71.1252 25.5395 73.8984 22.6492 73.8984 19.0935V6.44598C73.8984 2.89254 71.1274 0 67.7183 0H15.2817C11.8726 0 9.10161 2.89028 9.10161 6.44598V19.0935C9.10161 22.6469 11.8748 25.5395 15.2817 25.5395H15.7559C15.7357 25.6549 15.6885 25.759 15.6885 25.879V32.506C15.6885 32.7256 15.7492 32.927 15.8121 33.1217C15.7514 33.1805 15.6705 33.2122 15.6188 33.2778L0.435977 52.6271C0.152816 52.9869 0 53.4306 0 53.8923V118.157C0 124.558 5.02274 132 11.4995 132H71.5028C77.9773 132 83 124.558 83 118.157V53.89C82.9977 53.4374 82.8472 52.9983 82.573 52.6407ZM15.2817 21.4609C14.1064 21.4609 13.149 20.3972 13.149 19.0912V6.44598C13.149 5.14004 14.1064 4.07627 15.2817 4.07627H67.7183C68.8914 4.07627 69.8487 5.14004 69.8487 6.44598V19.0935C69.8487 20.3994 68.8936 21.4632 67.7183 21.4632H15.2817V21.4609ZM63.3293 25.5372C63.309 25.6526 63.2618 25.7568 63.2618 25.8767V32.5038H19.7381V25.8767C19.7381 25.7545 19.691 25.6504 19.6707 25.5372H63.3293ZM78.9503 118.155C78.9503 122.46 75.4445 127.921 71.5028 127.921H11.4995C7.55771 127.921 4.04966 122.46 4.04966 118.155V54.5984L18.1875 36.58H65.053L78.9503 54.5894V118.155Z" fill="var(--fill-0, white)"/>
<path d="M62.5989 40.7672H20.6056C19.9022 40.7672 19.237 41.0999 18.8123 41.6657L8.70159 55.1507C8.4072 55.5445 8.24764 56.0221 8.24764 56.5155V115.179C8.24764 123.904 13.0771 125.21 15.9582 125.21H67.0373C69.9161 125.21 74.7479 123.906 74.7479 115.179V56.5155C74.7479 56.0311 74.5928 55.5581 74.3074 55.1688L64.4057 41.6839C63.981 41.1067 63.3113 40.7672 62.5989 40.7672ZM70.2532 110.888H12.7445V58.8309H70.2532V110.888ZM67.0373 120.681H15.9604C14.8547 120.681 12.8142 120.67 12.7513 115.414H70.2487C70.1858 120.67 68.143 120.681 67.0373 120.681ZM14.9693 54.3042L21.7248 45.2939H61.464L68.0801 54.3042H14.9693Z" fill="var(--fill-0, white)"/>
<path d="M30.5432 108.862C36.9503 108.862 42.1641 103.613 42.1641 97.1582V73.1759C42.1641 66.7209 36.9503 61.4722 30.5432 61.4722C24.1361 61.4722 18.9224 66.7209 18.9224 73.1759V97.1582C18.9224 103.611 24.1361 108.862 30.5432 108.862ZM37.6695 97.1582C37.6695 101.115 34.4738 104.335 30.5432 104.335C26.6127 104.335 23.417 101.115 23.417 97.1582V87.2448H37.6695V97.1582ZM23.417 73.1759C23.417 69.2196 26.6127 65.9989 30.5432 65.9989C34.4738 65.9989 37.6695 69.2196 37.6695 73.1759V82.7181H23.417V73.1759Z" fill="var(--fill-0, white)"/>
<path d="M47.452 87.2448H63.0753C64.3158 87.2448 65.3226 86.2331 65.3226 84.9815C65.3226 83.7298 64.3158 82.7181 63.0753 82.7181H47.452C46.2115 82.7181 45.2047 83.7298 45.2047 84.9815C45.2047 86.2331 46.2115 87.2448 47.452 87.2448Z" fill="var(--fill-0, white)"/>
<path d="M47.452 78.1915H63.0753C64.3158 78.1915 65.3226 77.1797 65.3226 75.9281C65.3226 74.6765 64.3158 73.6648 63.0753 73.6648H47.452C46.2115 73.6648 45.2047 74.6765 45.2047 75.9281C45.2047 77.1797 46.2115 78.1915 47.452 78.1915Z" fill="var(--fill-0, white)"/>
<path d="M47.452 69.1381H63.0753C64.3158 69.1381 65.3226 68.1264 65.3226 66.8748C65.3226 65.6232 64.3158 64.6114 63.0753 64.6114H47.452C46.2115 64.6114 45.2047 65.6232 45.2047 66.8748C45.2047 68.1264 46.2115 69.1381 47.452 69.1381Z" fill="var(--fill-0, white)"/>
<path d="M47.452 105.351H63.0753C64.3158 105.351 65.3226 104.34 65.3226 103.088C65.3226 101.837 64.3158 100.825 63.0753 100.825H47.452C46.2115 100.825 45.2047 101.837 45.2047 103.088C45.2047 104.34 46.2115 105.351 47.452 105.351Z" fill="var(--fill-0, white)"/>
<path d="M47.452 96.2981H63.0753C64.3158 96.2981 65.3226 95.2864 65.3226 94.0348C65.3226 92.7832 64.3158 91.7715 63.0753 91.7715H47.452C46.2115 91.7715 45.2047 92.7832 45.2047 94.0348C45.2047 95.2864 46.2115 96.2981 47.452 96.2981Z" fill="var(--fill-0, white)"/>
<path d="M41.4989 5.88015C40.2584 5.88015 39.2516 6.89186 39.2516 8.14348V17.7627C39.2516 19.0143 40.2584 20.026 41.4989 20.026C42.7394 20.026 43.7462 19.0143 43.7462 17.7627V8.14348C43.7462 6.89186 42.7394 5.88015 41.4989 5.88015Z" fill="var(--fill-0, white)"/>
<path d="M52.7354 5.88015C51.4949 5.88015 50.4881 6.89186 50.4881 8.14348V17.7627C50.4881 19.0143 51.4949 20.026 52.7354 20.026C53.976 20.026 54.9828 19.0143 54.9828 17.7627V8.14348C54.9828 6.89186 53.976 5.88015 52.7354 5.88015Z" fill="var(--fill-0, white)"/>
<path d="M63.6911 5.88015C62.4506 5.88015 61.4438 6.89186 61.4438 8.14348V17.7627C61.4438 19.0143 62.4506 20.026 63.6911 20.026C64.9316 20.026 65.9384 19.0143 65.9384 17.7627V8.14348C65.9384 6.89186 64.9316 5.88015 63.6911 5.88015Z" fill="var(--fill-0, white)"/>
<path d="M19.0257 5.88015C17.7852 5.88015 16.7784 6.89186 16.7784 8.14348V17.7627C16.7784 19.0143 17.7852 20.026 19.0257 20.026C20.2663 20.026 21.2731 19.0143 21.2731 17.7627V8.14348C21.2731 6.89186 20.2663 5.88015 19.0257 5.88015Z" fill="var(--fill-0, white)"/>
<path d="M29.9814 5.88015C28.7409 5.88015 27.7341 6.89186 27.7341 8.14348V17.7627C27.7341 19.0143 28.7409 20.026 29.9814 20.026C31.2219 20.026 32.2287 19.0143 32.2287 17.7627V8.14348C32.2287 6.89186 31.2219 5.88015 29.9814 5.88015Z" fill="var(--fill-0, white)"/>
</g>
</svg>
