<svg preserveAspectRatio="none" width="100%" height="100%" overflow="visible" style="display: block;" viewBox="0 0 104 106" fill="none" xmlns="http://www.w3.org/2000/svg">
<g id="Med1">
<path d="M83.5929 24.9501V1.82237C83.5929 0.816422 82.7804 0 81.7792 0H1.81373C0.81255 0 0 0.816422 0 1.82237V24.9501C0 25.956 0.81255 26.7724 1.81373 26.7724H5.74952V97.9342C5.74952 102.984 9.88663 106 16.8151 106H66.7797C73.7099 106 77.847 102.986 77.847 97.9342V26.7724H81.7828C82.7822 26.7724 83.5929 25.9578 83.5929 24.9501ZM61.85 23.1277H43.6111V3.64474H61.85V23.1277ZM39.9836 23.1277H21.743V3.64474H39.9818L39.9836 23.1277ZM3.62746 23.1277V3.64474H18.1173V23.1277H3.62746ZM9.37698 34.5485H33.6356V90.1308H9.37698V34.5485ZM74.2178 97.9342C74.2178 101.781 69.5565 102.355 66.7779 102.355H16.8133C14.0364 102.355 9.37516 101.781 9.37516 97.9342V93.7737H35.4475C36.4487 93.7737 37.2612 92.9573 37.2612 91.9513V32.7243C37.2612 31.7184 36.4487 30.9019 35.4475 30.9019H9.37698V26.7706H74.2178V97.9342ZM79.9655 23.1277H65.4756V3.64474H79.9655V23.1277Z" fill="var(--fill-0, white)"/>
<path d="M30.1587 41.1546H12.3243C11.3231 41.1546 10.5106 41.971 10.5106 42.977C10.5106 43.9829 11.3231 44.7993 12.3243 44.7993H30.1587C31.1599 44.7993 31.9724 43.9829 31.9724 42.977C31.9724 41.971 31.1599 41.1546 30.1587 41.1546Z" fill="var(--fill-0, white)"/>
<path d="M26.5312 48.4441H12.3243C11.3231 48.4441 10.5106 49.2605 10.5106 50.2664C10.5106 51.2724 11.3231 52.0888 12.3243 52.0888H26.5312C27.5324 52.0888 28.3449 51.2724 28.3449 50.2664C28.3449 49.2605 27.5324 48.4441 26.5312 48.4441Z" fill="var(--fill-0, white)"/>
<path d="M26.5312 55.7336H12.3243C11.3231 55.7336 10.5106 56.55 10.5106 57.5559C10.5106 58.5619 11.3231 59.3783 12.3243 59.3783H26.5312C27.5324 59.3783 28.3449 58.5619 28.3449 57.5559C28.3449 56.55 27.5324 55.7336 26.5312 55.7336Z" fill="var(--fill-0, white)"/>
<path d="M26.5312 63.023H12.3243C11.3231 63.023 10.5106 63.8395 10.5106 64.8454C10.5106 65.8514 11.3231 66.6678 12.3243 66.6678H26.5312C27.5324 66.6678 28.3449 65.8514 28.3449 64.8454C28.3449 63.8395 27.5324 63.023 26.5312 63.023Z" fill="var(--fill-0, white)"/>
<path d="M26.5312 70.3125H12.3243C11.3231 70.3125 10.5106 71.1289 10.5106 72.1349C10.5106 73.1408 11.3231 73.9573 12.3243 73.9573H26.5312C27.5324 73.9573 28.3449 73.1408 28.3449 72.1349C28.3449 71.1289 27.5324 70.3125 26.5312 70.3125Z" fill="var(--fill-0, white)"/>
<path d="M26.5312 77.602H12.3243C11.3231 77.602 10.5106 78.4184 10.5106 79.4244C10.5106 80.4303 11.3231 81.2467 12.3243 81.2467H26.5312C27.5324 81.2467 28.3449 80.4303 28.3449 79.4244C28.3449 78.4184 27.5324 77.602 26.5312 77.602Z" fill="var(--fill-0, white)"/>
<path d="M96.5502 62.09C95.8429 61.9278 95.121 61.844 94.4009 61.844C89.9047 61.844 86.0632 64.9219 85.0584 69.3284L79.5919 93.289C79.0187 95.7984 79.454 98.3807 80.8143 100.562C82.1746 102.743 84.3003 104.261 86.7978 104.836C87.5033 104.998 88.227 105.082 88.9471 105.082C93.4415 105.082 97.283 102.004 98.2896 97.597L103.756 73.6365C104.939 68.4573 101.705 63.2782 96.5502 62.09ZM94.7528 96.7843C94.1271 99.5251 91.7384 101.44 88.9453 101.44C88.4973 101.44 88.0475 101.389 87.6067 101.287C86.0542 100.93 84.732 99.9862 83.8868 98.6303C83.0398 97.2745 82.7695 95.669 83.1268 94.109L85.4339 83.993L97.0599 86.6701L94.7528 96.7843ZM100.219 72.8219L97.8706 83.1147L86.2446 80.4376L88.5934 70.1449C89.2191 67.404 91.6078 65.4887 94.4009 65.4887C94.8489 65.4887 95.2987 65.5397 95.7395 65.6418C98.9443 66.3817 100.956 69.6018 100.219 72.8219Z" fill="var(--fill-0, white)"/>
</g>
</svg>
