<svg preserveAspectRatio="none" width="100%" height="100%" overflow="visible" style="display: block;" viewBox="0 0 91 132" fill="none" xmlns="http://www.w3.org/2000/svg">
<g id="MED3">
<path d="M79.1961 31.0682H63.8235C63.8464 30.9773 63.8464 30.8864 63.8464 30.7955V26.2955H66.4085C67.6667 26.2955 68.6961 25.2727 68.6961 24.0227V2.27273C68.6961 1.02273 67.6667 0 66.4085 0H24.5915C23.3333 0 22.3039 1.02273 22.3039 2.27273V24.0227C22.3039 25.2727 23.3333 26.2955 24.5915 26.2955H27.1536V30.7955C27.1536 30.8864 27.1536 30.9773 27.1765 31.0682H11.8039C5.28432 31.0682 0 36.3182 0 42.7955V109.886C0 115.977 4.66667 120.955 10.6144 121.545V129.727C10.6144 130.977 11.6438 132 12.902 132H78.098C79.3562 132 80.3856 130.977 80.3856 129.727V121.545C86.3333 120.955 91 115.977 91 109.886V42.7955C91 36.3182 85.7157 31.0682 79.1961 31.0682ZM64.1209 21.75H59.2255V4.54545H64.1209V21.75ZM59.2941 31.0682H31.7059C31.7288 30.9773 31.7288 30.8864 31.7288 30.7955V26.2955H59.2712V30.7955C59.2712 30.8864 59.2712 30.9773 59.2941 31.0682ZM54.6503 21.75H47.7876V4.54545H54.6503V21.75ZM36.3497 4.54545H43.2124V21.75H36.3497V4.54545ZM26.8791 21.75V4.54545H31.7745V21.75H26.8791ZM75.8105 127.455H15.1895V121.614H75.8105V127.455ZM79.1961 117.068H11.8039C7.82353 117.068 4.57516 113.841 4.57516 109.886V106.773H25.4837C26.7418 106.773 27.7712 105.75 27.7712 104.5C27.7712 103.25 26.7418 102.227 25.4837 102.227H4.57516V92.2727H25.4837C26.7418 92.2727 27.7712 91.25 27.7712 90C27.7712 88.75 26.7418 87.7273 25.4837 87.7273H4.57516V77.7955H25.4837C26.7418 77.7955 27.7712 76.7727 27.7712 75.5227C27.7712 74.2727 26.7418 73.25 25.4837 73.25H4.57516V63.2955H25.4837C26.7418 63.2955 27.7712 62.2727 27.7712 61.0227C27.7712 59.7727 26.7418 58.75 25.4837 58.75H4.57516V48.8182H25.4837C26.7418 48.8182 27.7712 47.7955 27.7712 46.5455C27.7712 45.2955 26.7418 44.2727 25.4837 44.2727H4.57516V42.7955C4.57516 38.8409 7.82353 35.6136 11.8039 35.6136H79.1961C82.4444 35.6136 85.1895 37.75 86.1046 40.6818H42.549C41.2908 40.6818 40.2614 41.7045 40.2614 42.9545V108.841C40.2614 110.091 41.2908 111.114 42.549 111.114H86.3105C85.7386 114.477 82.7647 117.068 79.1961 117.068ZM86.4248 106.568C86.402 106.568 86.402 106.568 86.3791 106.568H44.8366V45.2273H86.3791C86.402 45.2273 86.402 45.2273 86.4248 45.2273V106.568Z" fill="var(--fill-0, white)"/>
<path d="M78.0294 53.1136C76.5425 52.25 74.8497 51.7955 73.1111 51.7955C69.6569 51.7955 66.4314 53.6364 64.6928 56.5909L50.5327 80.6818C49.2059 82.9091 48.8399 85.5227 49.5033 88.0227C50.1667 90.5227 51.768 92.6136 54.0098 93.9318C55.5196 94.7955 57.2124 95.25 58.9281 95.25C62.3824 95.25 65.6078 93.4091 67.3464 90.4545L81.5294 66.3636C84.2288 61.75 82.6732 55.7955 78.0294 53.1136ZM63.3889 88.1591C62.0163 90.5 58.7222 91.3864 56.3203 90C55.1307 89.3182 54.2843 88.2045 53.9412 86.8636C53.5752 85.5455 53.781 84.1591 54.4673 82.9773L60.415 72.8864L69.3366 78.0682L63.3889 88.1591ZM77.5719 64.0682L71.6471 74.1364L62.7255 68.9545L68.6503 58.8864C69.5654 57.3182 71.281 56.3409 73.1111 56.3409C74.0261 56.3409 74.9183 56.5682 75.719 57.0455C78.1895 58.4545 79.0131 61.6136 77.5719 64.0682Z" fill="var(--fill-0, white)"/>
</g>
</svg>
