<svg preserveAspectRatio="none" width="100%" height="100%" overflow="visible" style="display: block;" viewBox="0 0 123 112" fill="none" xmlns="http://www.w3.org/2000/svg">
<g id="Icon container">
<path id="Vector" d="M57.5297 0C26.4561 0 1.26514 25.0693 1.26514 56C1.26514 86.9307 26.4561 112 57.5371 112C88.618 112 113.809 86.9307 113.809 56C113.809 25.0693 88.6033 0 57.5297 0ZM49.7724 103.538C23.3857 103.538 2.00323 82.2518 2.00323 56C2.00323 29.7482 23.3857 8.45436 49.7724 8.45436C76.1591 8.45436 97.5415 29.7408 97.5415 55.9927C97.5415 82.2445 76.1517 103.531 49.7724 103.531V103.538Z" fill="var(--fill-0, #EE7623)"/>
<g id="Group">
<path id="Vector_2" d="M4.55879 102.752L83.6229 59.4008C85.9184 58.1815 85.7708 54.8615 83.3794 53.8479L37.0126 34.6548C35.5143 34.0231 33.7871 34.6548 33.049 36.0871L0.351679 98.639C-1.02117 101.32 1.8869 104.17 4.55879 102.752Z" fill="url(#paint0_radial_35_512)"/>
<path id="Vector_3" d="M6.06449 8.28542L83.7115 54.1049C85.97 55.3904 85.7117 58.7104 83.2908 59.6432L36.3409 77.3673C34.8278 77.9475 33.1155 77.2718 32.429 75.8101L1.72453 12.2665C0.432869 9.54145 3.43689 6.78699 6.06449 8.28542Z" fill="url(#paint1_linear_35_512)"/>
<path id="Vector_4" d="M85.2098 56.2938C85.2024 56.2277 85.1877 56.1616 85.1729 56.0955C84.9958 55.3096 84.5234 54.575 83.7041 54.1123L83.062 53.7303L37.0126 34.6695C35.5143 34.0378 33.7871 34.6695 33.049 36.1018L22.7527 55.8017L32.4217 75.8174C33.1155 77.2791 34.8204 77.9622 36.3335 77.3746L82.9586 59.7754L83.6229 59.4155C84.457 58.9748 84.9589 58.2476 85.1581 57.4617C85.1729 57.4103 85.1803 57.3515 85.195 57.3001C85.2246 57.1312 85.2393 56.9549 85.2393 56.7859C85.2393 56.6243 85.2393 56.4628 85.2098 56.3085V56.2938Z" fill="var(--fill-0, #250858)"/>
</g>
</g>
<defs>
<radialGradient id="paint0_radial_35_512" cx="0" cy="0" r="1" gradientUnits="userSpaceOnUse" gradientTransform="translate(42.6294 68.7734) scale(38.794 38.6065)">
<stop stop-color="#F1B526"/>
<stop offset="1" stop-color="#F0562F"/>
</radialGradient>
<linearGradient id="paint1_linear_35_512" x1="1.41453" y1="42.7198" x2="85.2615" y2="42.7198" gradientUnits="userSpaceOnUse">
<stop stop-color="#2F1760"/>
<stop offset="1" stop-color="#8D83AC"/>
</linearGradient>
</defs>
</svg>
