<svg preserveAspectRatio="none" width="100%" height="100%" overflow="visible" style="display: block;" viewBox="0 0 78 78" fill="none" xmlns="http://www.w3.org/2000/svg">
<g id="Vector">
<path d="M78 39C78 60.5391 60.5391 78 39 78C17.4609 78 0 60.5391 0 39C0 17.4609 17.4609 0 39 0C60.5391 0 78 17.4609 78 39Z" fill="white"/>
<path d="M32.1477 48.2386C30.875 48.2386 29.7415 48.0199 28.7472 47.5824C27.7585 47.1392 26.9773 46.5312 26.4034 45.7585C25.8352 44.9801 25.5426 44.0824 25.5256 43.0653H29.2415C29.2642 43.4915 29.4034 43.8665 29.6591 44.1903C29.9205 44.5085 30.267 44.7557 30.6989 44.9318C31.1307 45.108 31.6165 45.196 32.1562 45.196C32.7188 45.196 33.2159 45.0966 33.6477 44.8977C34.0795 44.6989 34.4176 44.4233 34.6619 44.071C34.9063 43.7187 35.0284 43.3125 35.0284 42.8523C35.0284 42.3864 34.8977 41.9744 34.6364 41.6165C34.3807 41.2528 34.0114 40.9688 33.5284 40.7642C33.0511 40.5597 32.483 40.4574 31.8239 40.4574H30.196V37.7472H31.8239C32.3807 37.7472 32.8722 37.6506 33.2983 37.4574C33.7301 37.2642 34.0653 36.9972 34.304 36.6562C34.5426 36.3097 34.6619 35.9062 34.6619 35.446C34.6619 35.0085 34.5568 34.625 34.3466 34.2955C34.142 33.9602 33.8523 33.6989 33.4773 33.5114C33.108 33.3239 32.6761 33.2301 32.1818 33.2301C31.6818 33.2301 31.2244 33.321 30.8097 33.5028C30.3949 33.679 30.0625 33.9318 29.8125 34.2614C29.5625 34.5909 29.429 34.9773 29.4119 35.4205H25.875C25.892 34.4148 26.179 33.5284 26.7358 32.7614C27.2926 31.9943 28.0426 31.3949 28.9858 30.9631C29.9347 30.5256 31.0057 30.3068 32.1989 30.3068C33.4034 30.3068 34.4574 30.5256 35.3608 30.9631C36.2642 31.4006 36.9659 31.9915 37.4659 32.7358C37.9716 33.4744 38.2216 34.304 38.2159 35.2244C38.2216 36.2017 37.9176 37.017 37.304 37.6705C36.696 38.3239 35.9034 38.7386 34.9261 38.9148V39.0511C36.2102 39.2159 37.1875 39.6619 37.858 40.3892C38.5341 41.1108 38.8693 42.0142 38.8636 43.0994C38.8693 44.0937 38.5824 44.9773 38.0028 45.75C37.429 46.5227 36.6364 47.1307 35.625 47.5739C34.6136 48.017 33.4545 48.2386 32.1477 48.2386Z" fill="var(--fill-0, #EE7623)"/>
<path d="M41.6186 48V30.5455H45.3089V44.9574H52.7919V48H41.6186Z" fill="var(--fill-0, #EE7623)"/>
</g>
</svg>
