<svg preserveAspectRatio="none" width="100%" height="100%" overflow="visible" style="display: block;" viewBox="0 0 78 78" fill="none" xmlns="http://www.w3.org/2000/svg">
<g id="GreyArrow">
<path d="M78 39C78 60.5391 60.5391 78 39 78C17.4609 78 0 60.5391 0 39C0 17.4609 17.4609 0 39 0C60.5391 0 78 17.4609 78 39Z" fill="white"/>
<path d="M76 39C76 18.5655 59.4345 2 39 2C18.5655 2 2 18.5655 2 39C2 59.4345 18.5655 76 39 76V78C17.4609 78 0 60.5391 0 39C0 17.4609 17.4609 0 39 0C60.5391 0 78 17.4609 78 39C78 60.5391 60.5391 78 39 78V76C59.4345 76 76 59.4345 76 39ZM51.9287 31.9287C52.3191 31.5383 52.9522 31.5385 53.3428 31.9287L59.707 38.293C60.0976 38.6835 60.0976 39.3165 59.707 39.707L53.3428 46.0713C52.9522 46.4615 52.3191 46.4617 51.9287 46.0713C51.5383 45.6809 51.5385 45.0478 51.9287 44.6572L56.5859 40H20V38H56.5859L51.9287 33.3428C51.5385 32.9522 51.5383 32.3191 51.9287 31.9287Z" fill="var(--fill-0, #5D6771)"/>
</g>
</svg>
