<svg preserveAspectRatio="none" width="100%" height="100%" overflow="visible" style="display: block;" viewBox="0 0 86 96" fill="none" xmlns="http://www.w3.org/2000/svg">
<g id="Group">
<path id="Vector" d="M4.55879 94.8901L83.6229 51.5386C85.9184 50.3193 85.7708 46.9993 83.3794 45.9856L37.0126 26.7925C35.5143 26.1609 33.7871 26.7925 33.049 28.2249L0.351679 90.7768C-1.02117 93.4578 1.8869 96.3078 4.55879 94.8901Z" fill="url(#paint0_radial_34_482)"/>
<path id="Vector_2" d="M6.06449 0.423185L83.7115 46.2427C85.97 47.5281 85.7117 50.8482 83.2908 51.781L36.3409 69.505C34.8278 70.0853 33.1155 69.4095 32.429 67.9478L1.72453 4.4043C0.432869 1.67922 3.43689 -1.07524 6.06449 0.423185Z" fill="url(#paint1_linear_34_482)"/>
<path id="Vector_3" d="M85.2098 48.4316C85.2024 48.3655 85.1877 48.2994 85.1729 48.2333C84.9958 47.4473 84.5234 46.7128 83.7041 46.25L83.062 45.8681L37.0126 26.8072C35.5143 26.1755 33.7871 26.8072 33.049 28.2396L22.7527 47.9395L32.4217 67.9552C33.1155 69.4169 34.8204 70.1 36.3335 69.5124L82.9586 51.9132L83.6229 51.5533C84.457 51.1126 84.9589 50.3854 85.1581 49.5995C85.1729 49.5481 85.1803 49.4893 85.195 49.4379C85.2246 49.2689 85.2393 49.0926 85.2393 48.9237C85.2393 48.7621 85.2393 48.6005 85.2098 48.4463V48.4316Z" fill="var(--fill-0, #250858)"/>
</g>
<defs>
<radialGradient id="paint0_radial_34_482" cx="0" cy="0" r="1" gradientUnits="userSpaceOnUse" gradientTransform="translate(42.6294 60.9111) scale(38.794 38.6065)">
<stop stop-color="#F1B526"/>
<stop offset="1" stop-color="#F0562F"/>
</radialGradient>
<linearGradient id="paint1_linear_34_482" x1="1.41453" y1="34.8576" x2="85.2615" y2="34.8576" gradientUnits="userSpaceOnUse">
<stop stop-color="#2F1760"/>
<stop offset="1" stop-color="#8D83AC"/>
</linearGradient>
</defs>
</svg>
