<svg preserveAspectRatio="none" width="100%" height="100%" overflow="visible" style="display: block;" viewBox="0 0 437 440" fill="none" xmlns="http://www.w3.org/2000/svg">
<path id="Vector" d="M218.168 9.99765C246.265 9.99765 273.522 15.5364 299.17 26.4738C323.957 37.0413 346.215 52.1577 365.343 71.4332C384.471 90.7087 399.489 113.143 409.978 138.138C420.837 164.011 426.347 191.495 426.347 219.828C426.347 248.162 420.837 275.655 409.978 301.519C399.489 326.503 384.471 348.948 365.343 368.224C346.225 387.489 323.957 402.615 299.17 413.183C273.522 424.11 246.265 429.659 218.168 429.659C190.071 429.659 162.813 424.12 137.166 413.183C112.379 402.615 90.1208 387.499 70.9928 368.224C51.8647 348.948 36.8462 326.513 26.3573 301.519C15.4984 275.645 9.98898 248.162 9.98898 219.828C9.98898 191.495 15.4984 164.001 26.3573 138.138C36.8462 113.153 51.8647 90.7087 70.9928 71.4332C90.1108 52.1677 112.379 37.0413 137.166 26.4738C162.813 15.5463 190.071 9.99765 218.168 9.99765ZM218.168 0C97.6801 0 0 98.4169 0 219.818C0 341.22 97.6801 439.637 218.168 439.637C338.656 439.637 436.336 341.22 436.336 219.818C436.336 98.4169 338.656 0 218.168 0Z" fill="var(--fill-0, #EC7624)"/>
</svg>
