<svg preserveAspectRatio="none" width="100%" height="100%" overflow="visible" style="display: block;" viewBox="0 0 74 83" fill="none" xmlns="http://www.w3.org/2000/svg">
<g id="Logo Container">
<path id="Vector" d="M3.92197 81.979L71.905 44.5278C73.8848 43.478 73.7549 40.6087 71.6951 39.7289L31.8291 23.1528C30.5393 22.6129 29.0594 23.1528 28.4195 24.3925L0.30234 78.4198C-0.877539 80.7393 1.62221 83.1987 3.92197 81.979Z" fill="url(#paint0_radial_12_250)"/>
<path id="Vector_2" d="M5.21179 0.368166L71.975 39.9489C73.9148 41.0586 73.6948 43.9279 71.615 44.7377L31.2391 60.0541C29.9393 60.554 28.4694 59.9741 27.8695 58.7044L1.48217 3.80736C0.382279 1.44791 2.96202 -0.931528 5.21179 0.368166Z" fill="url(#paint1_linear_12_250)"/>
<path id="Vector_3" d="M73.2749 41.8384C73.2749 41.7785 73.2549 41.7185 73.2449 41.6685C73.0949 40.9886 72.6849 40.3588 71.985 39.9489L71.4351 39.619L31.8291 23.1528C30.5392 22.6129 29.0594 23.1528 28.4194 24.3925L19.5604 41.4085L27.8695 58.6945C28.4594 59.9542 29.9293 60.5441 31.2392 60.0442L71.3351 44.8377L71.905 44.5278C72.625 44.1479 73.0549 43.518 73.2249 42.8382C73.2349 42.7882 73.2449 42.7482 73.2549 42.6982C73.2849 42.5483 73.2949 42.3983 73.2949 42.2583C73.2949 42.1184 73.2949 41.9784 73.2749 41.8484V41.8384Z" fill="var(--fill-0, #250858)"/>
</g>
<defs>
<radialGradient id="paint0_radial_12_250" cx="0" cy="0" r="1" gradientUnits="userSpaceOnUse" gradientTransform="translate(36.6586 52.6259) scale(33.3566 33.3522)">
<stop stop-color="#F1B526"/>
<stop offset="1" stop-color="#F0562F"/>
</radialGradient>
<linearGradient id="paint1_linear_12_250" x1="1.22219" y1="30.1112" x2="73.3149" y2="30.1112" gradientUnits="userSpaceOnUse">
<stop stop-color="#2F1760"/>
<stop offset="1" stop-color="#8D83AC"/>
</linearGradient>
</defs>
</svg>
