<svg preserveAspectRatio="none" width="100%" height="100%" overflow="visible" style="display: block;" viewBox="0 0 78 78" fill="none" xmlns="http://www.w3.org/2000/svg">
<g id="Vector">
<path d="M78 39C78 60.5391 60.5391 78 39 78C17.4609 78 0 60.5391 0 39C0 17.4609 17.4609 0 39 0C60.5391 0 78 17.4609 78 39Z" fill="white"/>
<path d="M22.3523 30.5455V48H18.6619V34.0483H18.5597L14.5625 36.554V33.2812L18.8835 30.5455H22.3523Z" fill="var(--fill-0, #5D6771)"/>
<path d="M34.6911 37.8324V40.7131H26.7308V37.8324H34.6911Z" fill="var(--fill-0, #5D6771)"/>
<path d="M44.0852 48.2386C42.8125 48.2386 41.679 48.0199 40.6847 47.5824C39.696 47.1392 38.9148 46.5312 38.3409 45.7585C37.7727 44.9801 37.4801 44.0824 37.4631 43.0653H41.179C41.2017 43.4915 41.3409 43.8665 41.5966 44.1903C41.858 44.5085 42.2045 44.7557 42.6364 44.9318C43.0682 45.108 43.554 45.196 44.0938 45.196C44.6562 45.196 45.1534 45.0966 45.5852 44.8977C46.017 44.6989 46.3551 44.4233 46.5994 44.071C46.8438 43.7187 46.9659 43.3125 46.9659 42.8523C46.9659 42.3864 46.8352 41.9744 46.5739 41.6165C46.3182 41.2528 45.9489 40.9688 45.4659 40.7642C44.9886 40.5597 44.4205 40.4574 43.7614 40.4574H42.1335V37.7472H43.7614C44.3182 37.7472 44.8097 37.6506 45.2358 37.4574C45.6676 37.2642 46.0028 36.9972 46.2415 36.6562C46.4801 36.3097 46.5994 35.9062 46.5994 35.446C46.5994 35.0085 46.4943 34.625 46.2841 34.2955C46.0795 33.9602 45.7898 33.6989 45.4148 33.5114C45.0455 33.3239 44.6136 33.2301 44.1193 33.2301C43.6193 33.2301 43.1619 33.321 42.7472 33.5028C42.3324 33.679 42 33.9318 41.75 34.2614C41.5 34.5909 41.3665 34.9773 41.3494 35.4205H37.8125C37.8295 34.4148 38.1165 33.5284 38.6733 32.7614C39.2301 31.9943 39.9801 31.3949 40.9233 30.9631C41.8722 30.5256 42.9432 30.3068 44.1364 30.3068C45.3409 30.3068 46.3949 30.5256 47.2983 30.9631C48.2017 31.4006 48.9034 31.9915 49.4034 32.7358C49.9091 33.4744 50.1591 34.304 50.1534 35.2244C50.1591 36.2017 49.8551 37.017 49.2415 37.6705C48.6335 38.3239 47.8409 38.7386 46.8636 38.9148V39.0511C48.1477 39.2159 49.125 39.6619 49.7955 40.3892C50.4716 41.1108 50.8068 42.0142 50.8011 43.0994C50.8068 44.0937 50.5199 44.9773 49.9403 45.75C49.3665 46.5227 48.5739 47.1307 47.5625 47.5739C46.5511 48.017 45.392 48.2386 44.0852 48.2386Z" fill="var(--fill-0, #5D6771)"/>
<path d="M53.5561 48V30.5455H57.2464V44.9574H64.7294V48H53.5561Z" fill="var(--fill-0, #5D6771)"/>
</g>
</svg>
