<svg preserveAspectRatio="none" width="100%" height="100%" overflow="visible" style="display: block;" viewBox="0 0 175 218" fill="none" xmlns="http://www.w3.org/2000/svg">
<g id="Vector">
<path d="M17.3398 15.4679C16.6945 17.2612 15.5236 19.0546 15.4997 20.8719C15.3563 40.0731 15.4041 59.2744 15.4997 78.4756C15.4997 79.5038 16.4556 80.5081 16.9335 81.5124C18.0806 83.9275 20.088 86.3187 20.2314 88.8055C21.8087 116.232 51.3464 128.714 71.8507 115.73C81.7205 109.489 86.2372 100.69 86.9541 89.4989C87.1692 86.1513 88.0773 83.3536 91.0884 81.4167C91.8293 80.9385 92.4506 79.6234 92.4506 78.6669C92.5223 59.1548 92.5462 39.6427 92.4028 20.1307C92.4028 18.7677 91.1601 17.2852 90.1564 16.1852C89.9414 15.9461 88.0056 16.9504 87.1453 17.7156C83.8235 20.6567 77.2277 20.6567 72.7827 17.5721C69.5087 15.3005 68.1943 10.279 69.8911 6.19006C71.4922 2.31634 74.7901 0.738163 78.5899 0.212102C82.3896 -0.313959 85.9982 0.116455 88.3163 3.89453C88.7704 4.65971 89.7741 5.32924 90.6583 5.54444C97.9471 7.33783 102.392 12.8615 102.416 20.4415C102.44 39.4514 102.44 58.4374 102.416 77.4474C102.416 79.2886 102.894 80.5081 104.28 81.9189C107.984 85.6252 109.084 89.2837 107.1 95.2856C106.24 97.892 106.096 100.738 105.284 103.344C99.1898 122.952 85.4486 134.286 65.9479 139.331C65.2549 139.523 64.538 139.666 63.8449 139.809C63.2475 139.929 62.65 140.049 61.7419 140.24C61.7419 148.776 61.6463 157.265 61.7897 165.754C61.8375 168.504 62.3872 171.254 62.889 173.956C65.6373 188.542 80.1193 199.685 93.3348 201.622C104.089 203.176 113.767 201.096 122.801 194.855C132.742 187.968 137.761 178.475 138.048 166.854C138.526 147.868 138.143 128.858 138.263 109.872C138.263 107.6 136.972 107.265 135.467 106.596C123.207 101.12 115.894 89.9533 118.356 76.2996C120.746 62.909 135.969 52.1008 150.236 54.6594C163.045 56.9549 171.29 64.6545 173.608 76.8017C175.997 89.3315 168.278 103.105 156.043 106.763C154.131 107.337 153.581 108.294 153.581 110.254C153.653 128.523 153.653 146.816 153.629 165.084C153.629 177.327 150.116 188.566 142.062 197.748C132.886 208.197 121.367 214.869 107.172 216.566C92.2833 218.336 78.7572 215.012 66.88 205.997C53.8079 196.074 46.6624 182.827 46.3278 166.256C46.1844 158.772 46.28 151.263 46.28 143.755C46.28 142.655 46.28 141.531 46.28 140.862C40.688 138.949 35.3348 137.538 30.3402 135.314C20.5182 130.938 13.2055 123.789 7.39829 114.654C2.42755 106.883 0.491823 98.6093 0.0138666 89.7141C-0.153418 86.5578 1.20876 84.0231 3.24007 81.6559C4.12429 80.6276 4.84123 79.0734 4.84123 77.7582C4.93682 59.0592 4.91292 40.384 4.91292 21.6849C4.91292 14.0092 9.38181 8.00736 16.6706 5.64009C17.5549 5.35315 18.4391 4.68362 19.0126 3.91844C21.8804 0.18819 27.5203 -1.10305 32.3954 1.0251C36.5297 2.81849 39.0151 7.57695 38.107 11.905C37.1033 16.7113 33.1123 19.7959 27.8309 19.8916C24.1029 19.9633 20.5899 19.6046 18.5108 15.8026C18.1284 15.707 17.746 15.6113 17.3637 15.5157L17.3398 15.4679ZM146.101 98.7289C156.162 98.8006 164.025 91.2923 164.096 81.5841C164.168 71.0868 155.613 64.4393 146.292 64.2719C136.184 64.1046 128.393 71.6607 128.369 81.3928C128.321 91.1489 136.016 98.6572 146.125 98.705L146.101 98.7289Z" fill="var(--fill-0, #7CCADA)"/>
<path d="M146.269 69.1738C152.769 69.2216 158.959 75.3908 159.174 81.584C159.365 86.9164 152.172 94.0899 146.054 93.8508C138.98 93.5638 133.269 88.2793 133.245 81.5362C133.221 74.6735 139.076 69.1259 146.245 69.1738H146.269Z" fill="var(--fill-0, #7CCADA)"/>
</g>
</svg>
