<svg preserveAspectRatio="none" width="100%" height="100%" overflow="visible" style="display: block;" viewBox="0 0 1829 2974" fill="none" xmlns="http://www.w3.org/2000/svg">
<g id="Group">
<path id="Vector" opacity="0.99" d="M677.263 447.533H1828.93V1892.18L677.263 2527.34" fill="url(#paint0_linear_12_204)"/>
<path id="Vector_2" opacity="0.4" d="M1780.87 1938.04C1780.93 1935.66 1780.78 1933.35 1780.47 1931C1780.32 1930 1780.16 1929.03 1779.95 1928.05C1777.26 1914.3 1768.69 1901.6 1753.66 1895.23L1749.1 1893.34L624.529 1226.61C586.213 1204.62 542.367 1245.04 561.185 1285.02L555.856 1919.35L541.117 2552.41C521.049 2591.76 563.585 2633.55 602.581 2612.78L1747.6 1981.99L1752.33 1980.2C1767.63 1974.28 1776.62 1961.76 1779.69 1948.01C1779.89 1947.2 1780.04 1946.4 1780.2 1945.59C1780.62 1943.07 1780.87 1940.59 1780.87 1938.04Z" fill="var(--fill-0, #F17A2B)"/>
<path id="Vector_3" d="M1028.1 592.669C1028.15 590.7 1028.02 588.8 1027.77 586.851C1027.65 586.021 1027.52 585.231 1027.34 584.421C1025.12 573.064 1018.04 562.576 1005.63 557.318L1001.87 555.758L73.135 5.1269C41.4882 -13.0288 5.28189 20.3533 20.8203 53.3556L16.4208 577.223L4.242 1100.03C-12.3263 1132.53 22.8001 1167.03 55.0068 1149.9L1000.62 628.961L1004.53 627.481C1017.17 622.592 1024.59 612.255 1027.13 600.897C1027.3 600.227 1027.42 599.568 1027.55 598.898C1027.9 596.818 1028.1 594.769 1028.1 592.659V592.669Z" fill="var(--fill-0, white)"/>
<path id="Vector_4" opacity="0.17" d="M1412.63 2351.31C1412.68 2349.34 1412.55 2347.44 1412.3 2345.49C1412.18 2344.66 1412.05 2343.87 1411.87 2343.06C1409.65 2331.7 1402.57 2321.21 1390.16 2315.95L1386.4 2314.39L457.676 1763.77C426.029 1745.62 389.823 1779 405.361 1812.01L400.962 2335.88L388.783 2858.69C372.215 2891.19 407.341 2925.69 439.548 2908.56L1385.16 2387.62L1389.07 2386.14C1401.71 2381.25 1409.13 2370.91 1411.67 2359.55C1411.84 2358.88 1411.96 2358.22 1412.09 2357.55C1412.44 2355.47 1412.64 2353.43 1412.64 2351.32L1412.63 2351.31Z" fill="var(--fill-0, #F9B06E)"/>
<path id="Vector_5" opacity="0.39" d="M1390.04 2371.66C1390.09 2369.69 1389.96 2367.79 1389.71 2365.84C1389.59 2365.01 1389.46 2364.22 1389.28 2363.41C1387.06 2352.06 1379.98 2341.57 1367.57 2336.31L1363.81 2334.75L435.088 1784.13C403.441 1765.97 367.235 1799.35 382.773 1832.37L378.374 2356.23L366.195 2879.04C349.627 2911.54 384.753 2946.05 416.96 2928.91L1362.57 2407.97L1366.48 2406.49C1379.12 2401.6 1386.54 2391.27 1389.08 2379.91C1389.25 2379.24 1389.37 2378.58 1389.5 2377.91C1389.85 2375.83 1390.05 2373.78 1390.05 2371.67L1390.04 2371.66Z" fill="var(--fill-0, white)"/>
<path id="Vector_6" opacity="0.17" d="M1288.14 2411.55C1288.19 2409.58 1288.06 2407.68 1287.81 2405.73C1287.69 2404.9 1287.56 2404.11 1287.38 2403.3C1285.16 2391.95 1278.08 2381.46 1265.67 2376.2L1261.91 2374.64L333.189 1824.02C301.542 1805.86 265.335 1839.25 280.874 1872.26L276.474 2396.13L264.296 2918.93C247.727 2951.44 282.854 2985.94 315.06 2968.8L1260.67 2447.86L1264.58 2446.38C1277.22 2441.49 1284.64 2431.16 1287.18 2419.8C1287.35 2419.13 1287.47 2418.47 1287.6 2417.8C1287.95 2415.72 1288.15 2413.67 1288.15 2411.56L1288.14 2411.55Z" fill="var(--fill-0, #F9B06E)"/>
<g id="Group_2">
<path id="Vector_7" d="M723.869 2284.47L688.752 2211.44L607.391 2367.79C602.401 2377.58 612.98 2387.97 622.679 2382.81L907.44 2225.94L738.087 2290.16C732.588 2292.29 726.378 2289.8 723.869 2284.47Z" fill="var(--fill-0, #F28C26)"/>
<path id="Vector_8" d="M915.77 2214.66C915.75 2210.46 913.45 2206.27 908.94 2204.36L907.81 2203.89L910.15 2205.28C913.84 2207.4 915.67 2211.02 915.77 2214.67V2214.66Z" fill="var(--fill-0, #F28C26)"/>
<path id="Vector_9" d="M740.547 2134.33L907.81 2203.89L628.139 2038.08C618.61 2032.61 607.711 2042.67 612.38 2052.61L688.753 2211.44L726.159 2139.57C728.838 2134.32 735.118 2132.03 740.547 2134.33Z" fill="var(--fill-0, #F28C26)"/>
<path id="Vector_10" d="M909.83 2224.62L907.43 2225.94L908.61 2225.49C913.45 2223.61 915.9 2219.11 915.77 2214.66C915.79 2218.56 913.85 2222.48 909.84 2224.62H909.83Z" fill="var(--fill-0, #F28C26)"/>
<path id="Vector_11" d="M915.769 2214.66C915.659 2211.01 913.839 2207.39 910.15 2205.27L907.81 2203.88L740.547 2134.32C735.118 2132.02 728.828 2134.31 726.158 2139.56L688.752 2211.43L723.869 2284.46C726.378 2289.8 732.588 2292.28 738.087 2290.15L907.44 2225.93L909.84 2224.61C913.859 2222.47 915.789 2218.55 915.769 2214.65V2214.66Z" fill="var(--fill-0, #F28C26)"/>
</g>
</g>
<defs>
<linearGradient id="paint0_linear_12_204" x1="677.263" y1="1487.44" x2="1828.93" y2="1487.44" gradientUnits="userSpaceOnUse">
<stop stop-color="#F1B526"/>
<stop offset="1" stop-color="#F0562F"/>
</linearGradient>
</defs>
</svg>
