<svg preserveAspectRatio="none" width="100%" height="100%" overflow="visible" style="display: block;" viewBox="0 0 78 78" fill="none" xmlns="http://www.w3.org/2000/svg">
<g id="Vector">
<path d="M78 39C78 60.5391 60.5391 78 39 78C17.4609 78 0 60.5391 0 39C0 17.4609 17.4609 0 39 0C60.5391 0 78 17.4609 78 39Z" fill="white"/>
<path d="M22.3913 30.5455V48H18.701V34.0483H18.5987L14.6016 36.554V33.2812L18.9226 30.5455H22.3913Z" fill="var(--fill-0, #5D6771)"/>
<path d="M34.7301 37.8324V40.7131H26.7699V37.8324H34.7301Z" fill="var(--fill-0, #5D6771)"/>
<path d="M37.2976 48V45.3409L43.5107 39.5881C44.0391 39.0767 44.4822 38.6165 44.8402 38.2074C45.2038 37.7983 45.4794 37.3977 45.6669 37.0057C45.8544 36.608 45.9482 36.179 45.9482 35.7188C45.9482 35.2074 45.8317 34.767 45.5987 34.3977C45.3658 34.0227 45.0476 33.7358 44.6442 33.5369C44.2408 33.3324 43.7834 33.2301 43.272 33.2301C42.7379 33.2301 42.272 33.3381 41.8743 33.554C41.4766 33.7699 41.1697 34.0795 40.9538 34.483C40.7379 34.8864 40.63 35.3665 40.63 35.9233H37.1271C37.1271 34.7812 37.3857 33.7898 37.9027 32.9489C38.4197 32.108 39.1442 31.4574 40.076 30.9972C41.0078 30.5369 42.0817 30.3068 43.2976 30.3068C44.5476 30.3068 45.6357 30.5284 46.5618 30.9716C47.4936 31.4091 48.218 32.017 48.7351 32.7955C49.2521 33.5739 49.5107 34.4659 49.5107 35.4716C49.5107 36.1307 49.38 36.7812 49.1186 37.4233C48.8629 38.0653 48.4055 38.7784 47.7464 39.5625C47.0874 40.3409 46.1584 41.2756 44.9595 42.3665L42.4112 44.8636V44.983H49.7408V48H37.2976Z" fill="var(--fill-0, #5D6771)"/>
<path d="M52.517 48V30.5455H56.2074V44.9574H63.6903V48H52.517Z" fill="var(--fill-0, #5D6771)"/>
</g>
</svg>
