<svg preserveAspectRatio="none" width="100%" height="100%" overflow="visible" style="display: block;" viewBox="0 0 78 78" fill="none" xmlns="http://www.w3.org/2000/svg">
<g id="Vector">
<path d="M78 39C78 60.5391 60.5391 78 39 78C17.4609 78 0 60.5391 0 39C0 17.4609 17.4609 0 39 0C60.5391 0 78 17.4609 78 39Z" fill="white"/>
<path d="M26.5476 48V45.3409L32.7607 39.5881C33.2891 39.0767 33.7322 38.6165 34.0902 38.2074C34.4538 37.7983 34.7294 37.3977 34.9169 37.0057C35.1044 36.608 35.1982 36.179 35.1982 35.7188C35.1982 35.2074 35.0817 34.767 34.8487 34.3977C34.6158 34.0227 34.2976 33.7358 33.8942 33.5369C33.4908 33.3324 33.0334 33.2301 32.522 33.2301C31.9879 33.2301 31.522 33.3381 31.1243 33.554C30.7266 33.7699 30.4197 34.0795 30.2038 34.483C29.9879 34.8864 29.88 35.3665 29.88 35.9233H26.3771C26.3771 34.7812 26.6357 33.7898 27.1527 32.9489C27.6697 32.108 28.3942 31.4574 29.326 30.9972C30.2578 30.5369 31.3317 30.3068 32.5476 30.3068C33.7976 30.3068 34.8857 30.5284 35.8118 30.9716C36.7436 31.4091 37.468 32.017 37.9851 32.7955C38.5021 33.5739 38.7607 34.4659 38.7607 35.4716C38.7607 36.1307 38.63 36.7812 38.3686 37.4233C38.1129 38.0653 37.6555 38.7784 36.9964 39.5625C36.3374 40.3409 35.4084 41.2756 34.2095 42.3665L31.6612 44.8636V44.983H38.9908V48H26.5476Z" fill="var(--fill-0, #EE7623)"/>
<path d="M41.767 48V30.5455H45.4574V44.9574H52.9403V48H41.767Z" fill="var(--fill-0, #EE7623)"/>
</g>
</svg>
